<svg width="128" height="128" viewBox="0 0 128 128" fill="none" xmlns="http://www.w3.org/2000/svg">
<path d="M110.611 48.8688C110.589 48.7553 110.57 48.6419 110.54 48.5306C110.521 48.4637 110.498 48.4007 110.477 48.3348C110.446 48.236 110.412 48.1383 110.373 48.0421C110.346 47.9755 110.314 47.9111 110.284 47.8467C110.242 47.7557 110.196 47.6666 110.146 47.5795C110.111 47.5151 110.07 47.4544 110.032 47.3929C109.938 47.2471 109.835 47.1075 109.723 46.975C109.66 46.8999 109.593 46.8272 109.524 46.7569C109.471 46.7038 109.418 46.6508 109.363 46.5992C109.289 46.5323 109.213 46.4689 109.134 46.4089C109.074 46.362 109.015 46.3137 108.951 46.2709C108.929 46.2548 108.909 46.2358 108.885 46.2204L66.0725 17.6766C65.4115 17.2354 64.6347 17 63.84 17C63.0454 17 62.2686 17.2354 61.6076 17.6766L18.7924 46.2197C18.7686 46.2347 18.7499 46.2537 18.7258 46.2702C18.6628 46.3141 18.6036 46.3609 18.5428 46.4078C18.4651 46.4688 18.3889 46.5319 18.3145 46.597C18.2592 46.6475 18.2057 46.7 18.1542 46.7543C18.0836 46.8253 18.0181 46.897 17.9536 46.9728C17.9061 47.0295 17.8603 47.0862 17.8161 47.1495C17.7557 47.2289 17.7 47.3098 17.6459 47.3944C17.6067 47.4562 17.5676 47.5166 17.531 47.581C17.4819 47.6673 17.4365 47.7557 17.3949 47.8459C17.3645 47.9103 17.3319 47.9758 17.3052 48.0413C17.266 48.1372 17.232 48.2357 17.2005 48.3341C17.1793 48.4 17.1566 48.464 17.1387 48.5233C17.1094 48.6342 17.0882 48.7465 17.0681 48.8614C17.0571 48.9196 17.0428 48.9763 17.0351 49.0356C17.0124 49.2094 17 49.3836 17 49.5615V78.1112C17 78.2875 17.0124 78.4643 17.0377 78.637C17.0468 78.7003 17.0633 78.7505 17.0758 78.8112C17.0959 78.9247 17.1134 79.0381 17.1515 79.1519C17.1691 79.2149 17.1892 79.2782 17.2144 79.3473C17.2459 79.4483 17.2774 79.5493 17.3154 79.6415C17.3418 79.7045 17.3784 79.7674 17.4036 79.8307C17.4454 79.9189 17.4922 80.0071 17.5427 80.0993C17.5778 80.1623 17.6181 80.2256 17.6561 80.2834C17.7103 80.372 17.7696 80.4477 17.8325 80.5231C17.8768 80.5864 17.9211 80.6366 17.9716 80.6973C18.0356 80.7731 18.0975 80.8488 18.1732 80.9158C18.2248 80.9659 18.2742 81.0292 18.3372 81.0669C18.4103 81.1302 18.4887 81.1932 18.564 81.2587C18.6248 81.3092 18.6907 81.3472 18.7408 81.3963C18.7649 81.4087 18.7788 81.4339 18.8041 81.4453L61.6076 110.004C62.2669 110.449 63.0451 110.685 63.8406 110.681C64.6352 110.68 65.4118 110.444 66.0736 110.004L108.889 81.4603C108.913 81.4457 108.933 81.4277 108.955 81.4113C109.018 81.3674 109.078 81.3205 109.138 81.274C109.217 81.2118 109.294 81.1478 109.367 81.0823C109.422 81.0329 109.475 80.9787 109.528 80.9257C109.65 80.8031 109.762 80.672 109.865 80.5334C109.925 80.4539 109.981 80.372 110.035 80.2885C110.074 80.2282 110.114 80.1663 110.15 80.1045C110.201 80.0159 110.245 79.9266 110.287 79.8359C110.318 79.7715 110.35 79.707 110.377 79.6415C110.416 79.5442 110.449 79.4458 110.481 79.3473C110.502 79.2818 110.525 79.2174 110.544 79.1519C110.573 79.041 110.593 78.9272 110.614 78.8138C110.624 78.7556 110.64 78.6989 110.646 78.6396C110.669 78.4658 110.681 78.2916 110.681 78.1137V49.5688C110.681 49.391 110.667 49.2168 110.646 49.0426C110.636 48.9807 110.617 48.9306 110.604 48.8688H110.611ZM63.8395 73.3634L49.6025 63.8411L63.8395 54.3173L78.0772 63.8411L63.8395 73.3634V73.3634ZM59.8149 47.3245L42.3623 58.9981L28.2747 49.5736L59.8152 28.547V47.3245H59.8149ZM35.1222 63.8396L25.0526 70.5752V57.1044L35.1222 63.8396ZM42.3623 68.6866L59.8152 80.3588V99.1362L28.2747 78.1071L42.3627 68.684V68.6866H42.3623ZM67.8648 80.3566L85.3174 68.6844L99.4065 78.1071L67.8648 99.1337V80.3562V80.3566ZM92.5575 63.8422L102.629 57.1055V70.5778L92.5579 63.8396V63.8422H92.5575ZM85.3174 58.9978L67.8648 47.3256V28.547L99.4065 49.5739L85.3177 58.9978H85.3174Z" stroke="white" stroke-width="2" stroke-linejoin="round"/>
</svg>
