<svg width="128" height="128" viewBox="0 0 128 128" fill="none" xmlns="http://www.w3.org/2000/svg">
<path d="M64 15C35.8395 15 13 37.7239 13 65.7514C13 88.175 27.6115 107.198 47.8797 113.91C50.4255 114.38 51.25 112.806 51.25 111.47V102.022C37.0635 105.092 34.1098 96.033 34.1098 96.033C31.7893 90.167 28.4445 88.6064 28.4445 88.6064C23.8163 85.4556 28.7973 85.5233 28.7973 85.5233C33.9185 85.8785 36.613 90.7549 36.613 90.7549C41.1605 98.5114 48.5428 96.2699 51.454 94.9715C51.9088 91.6938 53.2305 89.4523 54.6925 88.1877C43.3663 86.8978 31.4577 82.5459 31.4577 63.1038C31.4577 57.5593 33.451 53.0339 36.7107 49.4813C36.1837 48.1999 34.437 43.0359 37.208 36.0491C37.208 36.0491 41.492 34.6873 51.2372 41.2511C55.3045 40.1262 59.665 39.5637 64 39.5425C68.335 39.5637 72.6997 40.1262 76.7755 41.2511C86.5122 34.6873 90.7877 36.0491 90.7877 36.0491C93.563 43.0401 91.8162 48.2041 91.2892 49.4813C94.5617 53.0339 96.538 57.5635 96.538 63.1038C96.538 82.5966 84.6082 86.8893 73.2523 88.1454C75.0798 89.7187 76.75 92.8061 76.75 97.5429V111.47C76.75 112.819 77.566 114.405 80.1542 113.906C100.405 107.186 115 88.1666 115 65.7514C115 37.7239 92.1647 15 64 15Z" stroke="white" stroke-width="2" stroke-linejoin="round"/>
</svg>
