<svg width="52" height="52" viewBox="0 0 52 52" fill="none" xmlns="http://www.w3.org/2000/svg">
<path d="M44.9355 19.8529C44.9268 19.8068 44.9192 19.7608 44.9068 19.7156C44.8991 19.6884 44.8899 19.6628 44.8813 19.636C44.8688 19.5959 44.8547 19.5562 44.8392 19.5171C44.8279 19.49 44.8151 19.4639 44.8028 19.4377C44.7857 19.4008 44.767 19.3646 44.7469 19.3292C44.7326 19.303 44.7161 19.2783 44.7003 19.2534C44.6623 19.1941 44.6205 19.1374 44.5752 19.0836C44.5493 19.0531 44.5223 19.0235 44.4943 18.995C44.4727 18.9734 44.4512 18.9519 44.4286 18.9309C44.3988 18.9038 44.3679 18.878 44.3358 18.8536C44.3113 18.8346 44.2872 18.8149 44.2615 18.7976C44.2524 18.791 44.2441 18.7833 44.2344 18.777L26.8419 7.18111C26.5734 7.0019 26.2578 6.90625 25.935 6.90625C25.6122 6.90625 25.2966 7.0019 25.0281 7.18111L7.63441 18.7767C7.62474 18.7828 7.61716 18.7906 7.60735 18.7973C7.58178 18.8151 7.5577 18.8341 7.53302 18.8532C7.50143 18.878 7.4705 18.9036 7.44025 18.93C7.41779 18.9505 7.39607 18.9719 7.37514 18.9939C7.34644 19.0228 7.31983 19.0519 7.29367 19.0827C7.27434 19.1057 7.25576 19.1288 7.23777 19.1545C7.21324 19.1868 7.19064 19.2196 7.16864 19.254C7.15273 19.2791 7.13683 19.3036 7.12196 19.3298C7.10201 19.3649 7.08356 19.4008 7.06666 19.4374C7.05432 19.4636 7.04109 19.4902 7.03024 19.5168C7.01433 19.5557 7.0005 19.5957 6.98772 19.6357C6.9791 19.6625 6.96988 19.6885 6.96259 19.7126C6.9507 19.7576 6.94208 19.8033 6.9339 19.85C6.92944 19.8736 6.92364 19.8966 6.92052 19.9207C6.9113 19.9913 6.90625 20.0621 6.90625 20.1344V31.7327C6.90625 31.8043 6.9113 31.8761 6.92156 31.9463C6.92528 31.972 6.93197 31.9924 6.93702 32.0171C6.9452 32.0631 6.95234 32.1092 6.9678 32.1555C6.97493 32.181 6.98311 32.2068 6.99337 32.2348C7.00615 32.2759 7.01894 32.3169 7.0344 32.3544C7.0451 32.3799 7.05997 32.4055 7.07023 32.4312C7.08717 32.4671 7.1062 32.5029 7.12672 32.5404C7.14099 32.5659 7.15734 32.5916 7.1728 32.6151C7.19481 32.6511 7.21889 32.6819 7.24446 32.7125C7.26245 32.7382 7.28044 32.7586 7.30095 32.7833C7.32697 32.8141 7.35209 32.8448 7.38287 32.872C7.40383 32.8924 7.4239 32.9181 7.44947 32.9334C7.4792 32.9591 7.51101 32.9847 7.54164 33.0113C7.56632 33.0318 7.59308 33.0473 7.61344 33.0672C7.62326 33.0723 7.62891 33.0825 7.63916 33.0871L25.0281 44.689C25.2959 44.8698 25.6121 44.9657 25.9352 44.9642C26.2581 44.9636 26.5736 44.8679 26.8424 44.6892L44.2361 33.0932C44.2457 33.0873 44.2539 33.08 44.2631 33.0733C44.2887 33.0555 44.3128 33.0365 44.3375 33.0176C44.3693 32.9923 44.4005 32.9663 44.4302 32.9397C44.4527 32.9196 44.4742 32.8976 44.4958 32.876C44.5451 32.8263 44.5908 32.773 44.6326 32.7167C44.6572 32.6844 44.6798 32.6511 44.7018 32.6172C44.7177 32.5927 44.7336 32.5676 44.7485 32.5424C44.769 32.5065 44.7869 32.4702 44.8043 32.4333C44.8166 32.4072 44.8295 32.381 44.8407 32.3544C44.8566 32.3148 44.87 32.2748 44.8828 32.2348C44.8914 32.2082 44.9006 32.1821 44.9083 32.1555C44.9202 32.1104 44.9284 32.0642 44.937 32.0181C44.9412 31.9945 44.9474 31.9714 44.9498 31.9473C44.9592 31.8767 44.9642 31.8059 44.9642 31.7337V20.1373C44.9642 20.0651 44.9586 19.9943 44.9498 19.9235C44.9458 19.8984 44.9381 19.8781 44.933 19.8529H44.9355ZM25.9348 29.8039L20.151 25.9354L25.9348 22.0664L31.7189 25.9354L25.9348 29.8039V29.8039ZM24.2998 19.2256L17.2097 23.968L11.4866 20.1393L24.2999 11.5972V19.2256H24.2998ZM14.2684 25.9348L10.1776 28.6712V23.1987L14.2684 25.9348ZM17.2097 27.9039L24.2999 32.6458V40.2741L11.4866 31.731L17.2099 27.9029V27.9039H17.2097ZM27.5701 32.6449L34.6602 27.903L40.3839 31.731L27.5701 40.2731V32.6447V32.6449ZM37.6015 25.9359L41.6929 23.1991V28.6722L37.6016 25.9348V25.9359H37.6015ZM34.6602 23.9678L27.5701 19.226V11.5972L40.3839 20.1394L34.6603 23.9678H34.6602Z" stroke="white" stroke-linejoin="round"/>
</svg>
