<svg width="52" height="52" viewBox="0 0 52 52" fill="none" xmlns="http://www.w3.org/2000/svg">
<path d="M26 6.09375C14.5598 6.09375 5.28125 15.3253 5.28125 26.7115C5.28125 35.8211 11.2172 43.5493 19.4511 46.276C20.4854 46.4667 20.8203 45.8276 20.8203 45.2847V41.4463C15.057 42.6937 13.8571 39.0134 13.8571 39.0134C12.9144 36.6304 11.5556 35.9964 11.5556 35.9964C9.67535 34.7163 11.6989 34.7438 11.6989 34.7438C13.7794 34.8882 14.874 36.8692 14.874 36.8692C16.7215 40.0203 19.7205 39.1096 20.9032 38.5822C21.0879 37.2506 21.6249 36.34 22.2188 35.8263C17.6175 35.3022 12.7797 33.5343 12.7797 25.6359C12.7797 23.3834 13.5895 21.545 14.9137 20.1018C14.6996 19.5812 13.99 17.4833 15.1158 14.645C15.1158 14.645 16.8561 14.0917 20.8151 16.7583C22.4675 16.3013 24.2389 16.0727 26 16.0641C27.7611 16.0727 29.5343 16.3013 31.19 16.7583C35.1456 14.0917 36.8825 14.645 36.8825 14.645C38.01 17.4851 37.3004 19.5829 37.0863 20.1018C38.4157 21.545 39.2186 23.3852 39.2186 25.6359C39.2186 33.5549 34.3721 35.2988 29.7587 35.8091C30.5011 36.4482 31.1797 37.7025 31.1797 39.6268V45.2847C31.1797 45.8327 31.5112 46.477 32.5627 46.2743C40.7897 43.5442 46.7188 35.8177 46.7188 26.7115C46.7188 15.3253 37.4419 6.09375 26 6.09375Z" stroke="white" stroke-linejoin="round"/>
</svg>
