<?xml version="1.0" standalone="no"?>
<!DOCTYPE svg PUBLIC "-//W3C//DTD SVG 20010904//EN"
 "http://www.w3.org/TR/2001/REC-SVG-20010904/DTD/svg10.dtd">
<svg version="1.0" xmlns="http://www.w3.org/2000/svg"
 width="512.000000pt" height="512.000000pt" viewBox="0 0 512.000000 512.000000"
 preserveAspectRatio="xMidYMid meet">
<metadata>
Created by potrace 1.11, written by Peter Selinger 2001-2013
</metadata>
<g transform="translate(0.000000,512.000000) scale(0.100000,-0.100000)"
fill="#000000" stroke="none">
<path d="M1317 3789 l-1228 -1229 545 -545 c300 -300 548 -545 553 -545 4 0
-237 245 -537 545 l-545 545 1226 1226 1225 1225 557 -556 556 -557 -27 -23
c-28 -24 -53 -45 -94 -80 -12 -11 -33 -28 -46 -38 l-22 -19 -443 444 c-244
244 -451 449 -460 456 -14 12 -140 -110 -1062 -1032 l-1046 -1046 256 -255
c140 -141 255 -259 255 -263 0 -8 17 -106 24 -142 24 -114 108 -301 177 -396
21 -29 35 -54 32 -58 -3 -3 56 -67 132 -141 75 -75 139 -134 142 -131 3 3 32
-13 64 -34 136 -93 316 -166 470 -192 l71 -11 234 -234 c128 -128 236 -233
238 -233 8 0 2086 2082 2086 2090 0 4 -222 231 -494 502 l-494 495 44 64 c25
35 57 81 71 102 14 20 27 37 28 37 7 0 1195 -1193 1195 -1200 0 -4 -550 -557
-1222 -1229 l-1222 -1222 -533 533 c-293 293 -533 529 -533 525 0 -11 1056
-1067 1067 -1067 4 0 562 553 1238 1230 l1230 1230 -607 607 -606 608 139 200
c76 109 139 207 139 216 0 50 -62 13 -241 -143 -70 -61 -134 -114 -152 -127
-18 -13 -58 25 -576 543 -306 306 -561 556 -566 555 -6 0 -563 -553 -1238
-1230z"/>
<path d="M1190 1460 c0 -5 5 -10 11 -10 5 0 7 5 4 10 -3 6 -8 10 -11 10 -2 0
-4 -4 -4 -10z"/>
</g>
</svg>
