<?xml version="1.0" standalone="no"?>
<!DOCTYPE svg PUBLIC "-//W3C//DTD SVG 20010904//EN"
 "http://www.w3.org/TR/2001/REC-SVG-20010904/DTD/svg10.dtd">
<svg version="1.0" xmlns="http://www.w3.org/2000/svg"
 width="512.000000pt" height="512.000000pt" viewBox="0 0 512.000000 512.000000"
 preserveAspectRatio="xMidYMid meet">
<metadata>
Created by potrace 1.11, written by Peter Selinger 2001-2013
</metadata>
<g transform="translate(0.000000,512.000000) scale(0.100000,-0.100000)"
fill="#000000" stroke="none">
<path d="M4039 4212 c-2 -5 -47 -44 -99 -88 -52 -43 -100 -83 -106 -89 -6 -5
-30 -26 -54 -45 -24 -19 -48 -39 -54 -45 -10 -9 -106 -90 -151 -127 -11 -9
-56 -47 -100 -85 -45 -37 -100 -84 -124 -103 -24 -19 -48 -40 -55 -45 -40 -38
-120 -95 -132 -95 -8 0 -26 11 -39 24 -31 31 -28 40 96 313 10 23 19 50 19 61
0 29 -24 54 -54 57 -23 3 -42 -12 -129 -102 -56 -59 -127 -132 -157 -163 -30
-31 -90 -93 -132 -138 -184 -193 -314 -273 -615 -381 -141 -51 -168 -57 -189
-43 -33 21 -32 46 8 217 21 93 37 179 34 190 -7 26 -49 47 -73 38 -10 -4 -48
-26 -86 -50 -37 -24 -70 -43 -73 -43 -3 0 -29 -15 -57 -34 -29 -18 -99 -61
-157 -96 -305 -182 -409 -303 -499 -580 -63 -194 -90 -360 -89 -550 1 -118 7
-176 32 -306 25 -129 114 -316 212 -446 250 -332 615 -524 1002 -526 95 0 149
4 271 23 160 25 434 130 576 221 92 59 199 177 258 284 22 39 101 207 177 375
12 28 35 75 50 106 24 51 26 60 14 87 -7 17 -21 33 -32 36 -12 4 -73 -15 -160
-49 -77 -30 -149 -55 -159 -55 -25 0 -53 30 -53 56 0 11 25 105 56 209 58 198
122 349 189 445 30 43 240 297 265 320 3 3 32 36 65 75 33 38 70 81 82 95 81
94 77 87 73 125 -2 25 -27 45 -56 45 -20 0 -136 -59 -158 -81 -6 -5 -18 -9
-28 -9 -10 0 -18 -4 -18 -8 0 -17 -117 -65 -143 -58 -26 6 -44 38 -38 66 3 13
110 177 136 206 6 7 35 49 65 93 30 45 81 118 113 164 32 45 63 90 70 100 7
10 67 97 135 195 111 161 138 212 113 212 -5 0 -16 3 -24 6 -8 3 -16 1 -18 -4z
m-946 -1106 c5 -12 -13 -46 -74 -146 -148 -244 -184 -326 -269 -615 -88 -296
-85 -350 29 -524 27 -42 52 -89 55 -104 6 -35 -17 -100 -51 -145 -60 -79 -352
-176 -528 -176 -365 0 -733 307 -808 675 -30 144 -16 312 42 499 42 133 110
210 187 210 14 0 61 -19 103 -41 105 -57 190 -88 265 -95 59 -6 75 -2 232 51
93 32 174 61 179 65 6 4 32 15 59 24 103 39 263 131 371 215 75 58 176 121
196 121 4 0 9 -6 12 -14z"/>
</g>
</svg>
