<svg width="288" height="310" viewBox="0 0 288 310" fill="none" xmlns="http://www.w3.org/2000/svg">
<path d="M74.1911 259.438C41.0624 237.381 38.9111 202.005 42.8456 176.288C45.7321 157.421 58.3822 141.792 74.2648 129.596L82.0174 123.643C83.3945 122.585 85.3724 123.664 85.2286 125.394L84.3433 136.051C83.6874 143.945 92.0327 149.432 99.0198 145.7L100.568 144.873C117.481 135.84 132.069 123.009 143.186 107.386L151.621 95.5319C151.966 95.048 152.3 94.8971 152.558 94.8412C152.868 94.774 153.268 94.8086 153.669 94.9991C154.07 95.1896 154.35 95.4774 154.494 95.7599C154.613 95.9952 154.708 96.3498 154.551 96.9225C151.85 106.756 164.266 113.508 171.053 105.897L199.858 73.5889L180.282 112.9C175.739 122.022 186.603 131.04 194.733 124.896C195.204 124.539 195.568 124.495 195.832 124.519C196.147 124.547 196.517 124.699 196.842 125C197.168 125.3 197.349 125.657 197.402 125.97C197.446 126.23 197.431 126.596 197.113 127.095L188.554 140.506C178.958 155.542 172.718 172.47 170.261 190.137L169.648 194.55C168.503 202.783 177.318 208.738 184.528 204.602L190.263 201.313C191.814 200.423 193.664 201.861 193.184 203.584L191.021 211.36C186.058 229.195 177.392 245.519 162.661 255.168C141.312 269.153 108.07 281.995 74.1911 259.438Z" stroke="url(#paint0_linear)" stroke-width="8"/>
<path d="M87.4927 100.689C77.0348 93.7265 75.5219 82.9245 76.4026 74.2268C77.2096 66.2567 82.6389 59.6254 89.4591 54.3882C89.8563 54.0832 90.4269 54.3945 90.3854 54.8936L90.1738 57.4408C89.8976 60.7648 93.4117 63.075 96.3538 61.5038C102.658 58.1372 108.095 53.3547 112.238 47.532L114.927 43.7527C113.861 47.7965 118.97 50.5575 121.768 47.4199L128.287 40.1081C128.329 40.0609 128.356 40.0446 128.363 40.041C128.374 40.0415 128.417 40.0462 128.474 40.0849C128.531 40.1235 128.551 40.1617 128.556 40.1717C128.555 40.1792 128.55 40.2102 128.522 40.2669L124.055 49.2351C122.183 52.9952 126.638 56.7128 129.997 54.227L127.58 58.0142C123.77 63.9834 121.293 70.7043 120.318 77.7181C119.818 81.3088 123.663 83.9059 126.808 82.1022L127.566 81.6672L126.571 79.9323L127.566 81.6671C127.961 81.4408 128.431 81.8066 128.309 82.2448C126.237 89.6907 122.679 96.456 116.512 100.141C109.056 104.597 98.3746 107.935 87.4927 100.689Z" stroke="#430078" stroke-width="4"/>
<defs>
<linearGradient id="paint0_linear" x1="69.0094" y1="260.712" x2="218.412" y2="49.79" gradientUnits="userSpaceOnUse">
<stop stop-color="#430078"/>
<stop offset="0.572917" stop-color="#600078"/>
<stop offset="1" stop-color="#780073"/>
</linearGradient>
</defs>
</svg>
